<svg width="32" height="32" viewBox="0 0 32 32" fill="none" xmlns="http://www.w3.org/2000/svg">
<g id="photograph">
<path id="Vector" d="M5.33301 21.3333L11.4477 15.2186C11.9477 14.7187 12.6259 14.4379 13.333 14.4379C14.0401 14.4379 14.7183 14.7187 15.2183 15.2186L21.333 21.3333M18.6663 18.6666L20.781 16.552C21.2811 16.0521 21.9592 15.7712 22.6663 15.7712C23.3734 15.7712 24.0516 16.0521 24.5517 16.552L26.6663 18.6666M18.6663 10.6666H18.6797M7.99967 26.6666H23.9997C24.7069 26.6666 25.3852 26.3857 25.8853 25.8856C26.3854 25.3855 26.6663 24.7072 26.6663 24V7.99998C26.6663 7.29274 26.3854 6.61446 25.8853 6.11436C25.3852 5.61426 24.7069 5.33331 23.9997 5.33331H7.99967C7.29243 5.33331 6.61415 5.61426 6.11406 6.11436C5.61396 6.61446 5.33301 7.29274 5.33301 7.99998V24C5.33301 24.7072 5.61396 25.3855 6.11406 25.8856C6.61415 26.3857 7.29243 26.6666 7.99967 26.6666Z" stroke="#9CA1AD" stroke-width="2" stroke-linecap="round" stroke-linejoin="round"/>
</g>
</svg>
