<svg width="21" height="20" viewBox="0 0 21 20" fill="none" xmlns="http://www.w3.org/2000/svg">
<g id="mi:add">
<path id="Vector" d="M8.49967 3.33337C8.72069 3.33337 8.93265 3.42117 9.08893 3.57745C9.24521 3.73373 9.33301 3.94569 9.33301 4.16671V9.16671H14.333C14.554 9.16671 14.766 9.2545 14.9223 9.41079C15.0785 9.56707 15.1663 9.77903 15.1663 10C15.1663 10.2211 15.0785 10.433 14.9223 10.5893C14.766 10.7456 14.554 10.8334 14.333 10.8334H9.33301V15.8334C9.33301 16.0544 9.24521 16.2663 9.08893 16.4226C8.93265 16.5789 8.72069 16.6667 8.49967 16.6667C8.27866 16.6667 8.0667 16.5789 7.91042 16.4226C7.75414 16.2663 7.66634 16.0544 7.66634 15.8334V10.8334H2.66634C2.44533 10.8334 2.23337 10.7456 2.07709 10.5893C1.92081 10.433 1.83301 10.2211 1.83301 10C1.83301 9.77903 1.92081 9.56707 2.07709 9.41079C2.23337 9.2545 2.44533 9.16671 2.66634 9.16671H7.66634V4.16671C7.66634 3.94569 7.75414 3.73373 7.91042 3.57745C8.0667 3.42117 8.27866 3.33337 8.49967 3.33337Z" fill="#EC1F3E"/>
</g>
</svg>
