<svg width="20" height="20" viewBox="0 0 20 20" fill="none" xmlns="http://www.w3.org/2000/svg">
<g id="pencil-alt">
<path id="Vector" d="M9.16634 4.16667H4.99967C4.55765 4.16667 4.13372 4.34226 3.82116 4.65482C3.5086 4.96739 3.33301 5.39131 3.33301 5.83334V15C3.33301 15.442 3.5086 15.866 3.82116 16.1785C4.13372 16.4911 4.55765 16.6667 4.99967 16.6667H14.1663C14.6084 16.6667 15.0323 16.4911 15.3449 16.1785C15.6574 15.866 15.833 15.442 15.833 15V10.8333M14.6547 2.98834C14.8084 2.82915 14.9923 2.70218 15.1957 2.61483C15.399 2.52749 15.6177 2.48151 15.839 2.47959C16.0603 2.47766 16.2798 2.51983 16.4846 2.60363C16.6894 2.68744 16.8755 2.81119 17.032 2.96768C17.1885 3.12417 17.3122 3.31025 17.396 3.51508C17.4798 3.71991 17.522 3.93937 17.5201 4.16067C17.5182 4.38197 17.4722 4.60067 17.3848 4.80401C17.2975 5.00735 17.1705 5.19126 17.0113 5.345L9.85634 12.5H7.49967V10.1433L14.6547 2.98834Z" stroke="white" stroke-width="1.4" stroke-linecap="round" stroke-linejoin="round"/>
</g>
</svg>
